<?xml version="1.0" encoding="UTF-8"?>
<svg id="Logo_B" data-name="Logo B" xmlns="http://www.w3.org/2000/svg" viewBox="0 0 1920 1080">
  <defs>
    <style>
      .cls-1 {
        fill: #fbf5f4;
        stroke-width: 0px;
      }
    </style>
  </defs>
  <path class="cls-1" d="M465.36,577.43v110.74h-148.79v-110.74h148.79M489.36,553.43h-196.79v42.9h-32.4v23.92h32.4v25.24h-32.4v23.95h32.4v42.73h196.79v-158.74h0Z"/>
  <g>
    <path class="cls-1" d="M292.62,366.25v158.94h196.78v-158.94h-196.78ZM465.4,501.19h-148.78v-110.94h148.78v110.94Z"/>
    <rect class="cls-1" x="354.77" y="458.31" width="72.4" height="23.94"/>
    <rect class="cls-1" x="354.77" y="409.15" width="72.4" height="23.94"/>
  </g>
  <g>
    <path class="cls-1" d="M618.31,552.1v30.53h-53.81v33.16h41.25v30.53h-41.25v63.7h-32.62v-157.92h86.42Z"/>
    <path class="cls-1" d="M1515.24,582.67c9.97,9.39,14.96,20.67,14.96,33.83v4.82c0,13.22-4.99,24.53-14.96,33.93-9.91,9.33-21.88,14-35.92,14s-25.95-4.66-35.92-14c-9.97-9.39-14.96-20.7-14.96-33.93v-4.82c0-13.16,4.98-24.44,14.96-33.83,9.97-9.39,21.94-14.09,35.92-14.09s26.01,4.7,35.92,14.09ZM1525.87,710.5h-92.99v-26.88h92.99v26.88ZM1463.57,601.67c-4.4,4.14-6.59,9.08-6.59,14.83v4.82c0,5.81,2.2,10.78,6.59,14.92,4.33,4.08,9.58,6.12,15.75,6.12s11.42-2.04,15.75-6.12c4.39-4.14,6.59-9.11,6.59-14.92v-4.82c0-5.75-2.2-10.69-6.59-14.83-4.33-4.08-9.58-6.12-15.75-6.12s-11.42,2.04-15.75,6.12Z"/>
    <path class="cls-1" d="M716.15,582.67c9.97,9.39,14.96,20.67,14.96,33.83v4.82c0,13.22-4.99,24.53-14.96,33.93-9.91,9.33-21.88,14-35.92,14s-25.95-4.66-35.92-14c-9.97-9.39-14.96-20.7-14.96-33.93v-4.82c0-13.16,4.98-24.44,14.96-33.83,9.97-9.39,21.94-14.09,35.92-14.09s26.01,4.7,35.92,14.09ZM726.78,710.5h-92.99v-26.88h92.99v26.88ZM664.49,601.68c-4.4,4.14-6.59,9.08-6.59,14.83v4.82c0,5.81,2.2,10.78,6.59,14.92,4.33,4.08,9.58,6.12,15.75,6.12s11.42-2.04,15.75-6.12c4.39-4.14,6.59-9.11,6.59-14.92v-4.82c0-5.75-2.2-10.69-6.59-14.83-4.33-4.08-9.58-6.12-15.75-6.12s-11.42,2.04-15.75,6.12Z"/>
    <path class="cls-1" d="M866.83,659.16c0,14.99-5.68,27.84-17.04,38.54-11.28,10.7-24.92,16.05-40.91,16.05s-29.56-5.35-40.91-16.05c-11.36-10.7-17.04-23.55-17.04-38.54v-107.06h32.51v107.06c0,6.55,2.5,12.18,7.51,16.89,5.01,4.72,10.99,7.07,17.94,7.07s13-2.36,17.94-7.07c5.01-4.72,7.51-10.35,7.51-16.89v-107.06h32.51v107.06Z"/>
    <path class="cls-1" d="M1003.89,552.1v158.38h-31.5l-46.97-88.16v88.16h-32.51v-158.38h31.5l46.86,88.16v-88.16h32.62Z"/>
    <path class="cls-1" d="M1087.64,552.1c15.47,0,28.73,5.21,39.79,15.63,11.06,10.35,16.59,22.84,16.59,37.48v53.95c0,14.08-5.34,26.15-16.03,36.22-10.69,10.07-23.54,15.1-38.56,15.1h-58.18v-158.38h56.38ZM1063.87,582.72v97.14h25.56c6.05,0,11.21-2.04,15.47-6.12,4.33-4.08,6.5-8.94,6.5-14.57v-53.95c0-6.19-2.32-11.47-6.95-15.84-4.71-4.43-10.31-6.65-16.81-6.65h-23.76Z"/>
    <path class="cls-1" d="M1229.41,552.1l43.49,158.38h-33.52l-6.61-24.07h-45.4l-6.61,24.07h-33.52l43.49-158.38h38.67ZM1195.89,655.68h28.36l-14.24-51.63-14.12,51.63Z"/>
    <path class="cls-1" d="M1359.86,552.1v30.62h-33.07v127.76h-32.62v-127.76h-33.07v-30.62h98.76Z"/>
    <path class="cls-1" d="M1374.63,552.1h32.62v158.38h-32.62v-158.38Z"/>
    <path class="cls-1" d="M1659.83,552.21v157.85h-31.62l-47.15-87.87v87.87h-32.64v-157.85h31.62l47.04,87.87v-87.87h32.75Z"/>
  </g>
  <g>
    <path class="cls-1" d="M570.26,407.34c-5.1,4.75-7.65,10.42-7.65,17.02v56.15c0,6.59,2.55,12.27,7.65,17.02,5.18,4.75,11.36,7.13,18.55,7.13,10.12,0,18.2-4.79,24.23-14.36l29.1,15.42c-12.52,19.85-30.3,29.78-53.32,29.78-16.46,0-30.57-5.39-42.31-16.17-11.75-10.78-17.62-23.72-17.62-38.82v-56.15c0-15.1,5.87-28.04,17.62-38.82,11.75-10.78,25.85-16.17,42.31-16.17,23.03,0,40.81,9.93,53.32,29.78l-29.1,15.42c-6.03-9.5-14.1-14.25-24.23-14.25-7.19,0-13.37,2.34-18.55,7.02Z"/>
    <path class="cls-1" d="M683.66,467.86v64.34h-33.62v-159.53h64.11c14.22,0,26.43,4.68,36.63,14.04,10.12,9.29,15.19,20.49,15.19,33.61,0,10-3.17,19.11-9.51,27.33-6.26,8.15-14.53,13.93-24.81,17.34l30.14,67.21h-36.4l-28.87-64.34h-12.87ZM683.66,403.51v33.5h30.49c4.95,0,9.2-1.63,12.75-4.89,3.63-3.33,5.45-7.27,5.45-11.81s-1.82-8.54-5.45-11.81c-3.56-3.33-7.81-5-12.75-5h-30.49Z"/>
    <path class="cls-1" d="M867.05,372.67v30.84h-55.76v33.5h42.78v30.84h-42.78v33.5h55.76v30.84h-89.38v-159.53h89.38Z"/>
    <path class="cls-1" d="M960.6,372.67l44.98,159.53h-34.66l-6.84-24.25h-46.95l-6.84,24.25h-34.66l44.98-159.53h39.99ZM925.94,477h29.33l-14.72-52.01-14.61,52.01Z"/>
    <path class="cls-1" d="M1090.08,372.67v30.84h-34.2v128.69h-33.73v-128.69h-34.2v-30.84h102.13Z"/>
    <path class="cls-1" d="M1192.18,372.67v30.84h-55.76v33.5h42.78v30.84h-42.78v33.5h55.76v30.84h-89.38v-159.53h89.38Z"/>
  </g>
</svg>