<?xml version="1.0" encoding="UTF-8"?>
<svg id="Logo_A" data-name="Logo A" xmlns="http://www.w3.org/2000/svg" viewBox="0 0 1920 1080">
  <defs>
    <style>
      .cls-1 {
        fill: #f2634a;
      }

      .cls-1, .cls-2 {
        stroke-width: 0px;
      }

      .cls-2 {
        fill: #273f43;
      }
    </style>
  </defs>
  <g>
    <path class="cls-2" d="M713.75,423.95c-4.17,3.88-6.25,8.52-6.25,13.91v45.88c0,5.39,2.08,10.02,6.25,13.9,4.23,3.88,9.28,5.82,15.16,5.82,8.27,0,14.87-3.91,19.8-11.73l23.78,12.6c-10.23,16.22-24.76,24.33-43.57,24.33-13.45,0-24.98-4.4-34.57-13.21-9.6-8.81-14.4-19.38-14.4-31.72v-45.88c0-12.34,4.8-22.91,14.4-31.72,9.6-8.81,21.12-13.21,34.57-13.21,18.82,0,33.34,8.11,43.57,24.33l-23.78,12.6c-4.93-7.76-11.53-11.65-19.8-11.65-5.87,0-10.93,1.91-15.16,5.74Z"/>
    <path class="cls-2" d="M806.41,473.4v52.58h-27.47v-130.36h52.38c11.62,0,21.6,3.82,29.93,11.47,8.27,7.59,12.41,16.74,12.41,27.46,0,8.17-2.59,15.61-7.77,22.33-5.12,6.66-11.87,11.38-20.27,14.17l24.63,54.92h-29.74l-23.59-52.58h-10.51ZM806.41,420.82v27.38h24.91c4.04,0,7.51-1.33,10.42-4,2.97-2.72,4.45-5.94,4.45-9.65s-1.48-6.98-4.45-9.65c-2.91-2.72-6.38-4.08-10.42-4.08h-24.91Z"/>
    <path class="cls-2" d="M956.27,395.62v25.2h-45.56v27.38h34.95v25.2h-34.95v27.38h45.56v25.2h-73.03v-130.36h73.03Z"/>
    <path class="cls-2" d="M1032.71,395.62l36.75,130.36h-28.32l-5.59-19.81h-38.36l-5.59,19.81h-28.32l36.75-130.36h32.68ZM1004.39,480.87h23.97l-12.03-42.5-11.94,42.5Z"/>
    <path class="cls-2" d="M1138.51,395.62v25.2h-27.94v105.15h-27.56v-105.15h-27.94v-25.2h83.45Z"/>
    <path class="cls-2" d="M1221.94,395.62v25.2h-45.56v27.38h34.95v25.2h-34.95v27.38h45.56v25.2h-73.03v-130.36h73.03Z"/>
  </g>
  <g>
    <path class="cls-2" d="M569.78,554.99v24.95h-43.97v27.1h33.71v24.95h-33.71v52.05h-26.65v-129.05h70.62Z"/>
    <path class="cls-1" d="M1302.69,579.97c8.15,7.68,12.22,16.89,12.22,27.65v3.94c0,10.81-4.07,20.05-12.22,27.72-8.1,7.62-17.88,11.44-29.35,11.44s-21.2-3.81-29.35-11.44c-8.15-7.67-12.22-16.92-12.22-27.72v-3.94c0-10.76,4.07-19.97,12.22-27.65,8.15-7.67,17.93-11.51,29.35-11.51s21.26,3.84,29.35,11.51ZM1311.37,684.42h-75.99v-21.97h75.99v21.97ZM1260.47,595.5c-3.59,3.38-5.39,7.42-5.39,12.12v3.94c0,4.75,1.8,8.81,5.39,12.19,3.54,3.33,7.83,5,12.87,5s9.33-1.67,12.87-5c3.59-3.38,5.39-7.45,5.39-12.19v-3.94c0-4.7-1.8-8.74-5.39-12.12-3.54-3.33-7.83-5-12.87-5s-9.33,1.67-12.87,5Z"/>
    <path class="cls-1" d="M649.73,579.97c8.15,7.68,12.22,16.89,12.22,27.65v3.94c0,10.81-4.07,20.05-12.22,27.72-8.1,7.62-17.88,11.44-29.35,11.44s-21.2-3.81-29.35-11.44c-8.15-7.67-12.22-16.92-12.22-27.72v-3.94c0-10.76,4.07-19.97,12.22-27.65,8.15-7.67,17.93-11.51,29.35-11.51s21.26,3.84,29.35,11.51ZM658.42,684.42h-75.99v-21.97h75.99v21.97ZM607.51,595.5c-3.59,3.38-5.39,7.42-5.39,12.12v3.94c0,4.75,1.8,8.81,5.39,12.19,3.54,3.33,7.83,5,12.87,5s9.33-1.67,12.87-5c3.59-3.38,5.39-7.45,5.39-12.19v-3.94c0-4.7-1.8-8.74-5.39-12.12-3.54-3.33-7.83-5-12.87-5s-9.33,1.67-12.87,5Z"/>
    <path class="cls-2" d="M772.86,642.47c0,12.25-4.64,22.75-13.92,31.49-9.22,8.74-20.37,13.11-33.43,13.11s-24.15-4.37-33.43-13.11c-9.28-8.74-13.92-19.24-13.92-31.49v-87.48h26.56v87.48c0,5.35,2.05,9.95,6.14,13.8,4.09,3.85,8.98,5.78,14.66,5.78s10.62-1.93,14.66-5.78c4.09-3.85,6.14-8.46,6.14-13.8v-87.48h26.56v87.48Z"/>
    <path class="cls-2" d="M884.85,554.99v129.42h-25.74l-38.38-72.04v72.04h-26.56v-129.42h25.74l38.29,72.04v-72.04h26.65Z"/>
    <path class="cls-2" d="M953.28,554.99c12.64,0,23.48,4.26,32.52,12.77,9.04,8.46,13.56,18.67,13.56,30.63v44.09c0,11.5-4.37,21.37-13.1,29.59-8.73,8.23-19.23,12.34-31.51,12.34h-47.54v-129.42h46.07ZM933.86,580.01v79.37h20.88c4.95,0,9.16-1.67,12.64-5,3.54-3.33,5.31-7.3,5.31-11.91v-44.09c0-5.06-1.89-9.37-5.68-12.94-3.85-3.62-8.43-5.44-13.74-5.44h-19.42Z"/>
    <path class="cls-2" d="M1069.13,554.99l35.54,129.42h-27.39l-5.4-19.67h-37.1l-5.4,19.67h-27.39l35.54-129.42h31.6ZM1041.74,639.63h23.17l-11.63-42.19-11.54,42.19Z"/>
    <path class="cls-2" d="M1175.72,554.99v25.02h-27.02v104.4h-26.65v-104.4h-27.02v-25.02h80.7Z"/>
    <path class="cls-2" d="M1187.79,554.99h26.65v129.42h-26.65v-129.42Z"/>
    <path class="cls-2" d="M1420.84,555.07v128.99h-25.84l-38.53-71.8v71.8h-26.67v-128.99h25.84l38.44,71.8v-71.8h26.76Z"/>
  </g>
  <path class="cls-1" d="M501.17,395.72v126h156v-126h-156ZM607.83,487.69h-57.39v-18.98h57.39v18.98ZM607.83,448.71h-57.39v-18.98h57.39v18.98Z"/>
  <polygon class="cls-1" points="1264.19 395.72 1264.19 429.73 1238.5 429.73 1238.5 448.7 1264.19 448.7 1264.19 468.7 1238.5 468.7 1238.5 487.69 1264.19 487.69 1264.19 521.56 1420.2 521.56 1420.2 395.72 1264.19 395.72"/>
</svg>